<?xml version="1.0" encoding="utf-8"?>
<!-- Generator: Adobe Illustrator 16.0.0, SVG Export Plug-In . SVG Version: 6.00 Build 0)  -->
<!DOCTYPE svg PUBLIC "-//W3C//DTD SVG 1.1//EN" "http://www.w3.org/Graphics/SVG/1.1/DTD/svg11.dtd">
<svg version="1.1" id="Layer_1" xmlns="http://www.w3.org/2000/svg" xmlns:xlink="http://www.w3.org/1999/xlink" x="0px" y="0px"
	 width="14.845px" height="12.568px" viewBox="0 0 14.845 12.568" enable-background="new 0 0 14.845 12.568" xml:space="preserve">
<g>
	<path fill="#09262D" d="M12.568,9.997c0,1.42-1.151,2.571-2.571,2.571H2.571C1.151,12.568,0,11.417,0,9.997V2.571
		C0,1.151,1.151,0,2.571,0h7.427c0.357,0,0.714,0.071,1.044,0.224c0.08,0.035,0.143,0.115,0.161,0.205
		c0.018,0.098-0.009,0.188-0.081,0.259l-0.437,0.438c-0.054,0.054-0.134,0.089-0.206,0.089c-0.027,0-0.054-0.009-0.08-0.018
		c-0.134-0.036-0.268-0.054-0.402-0.054H2.571c-0.786,0-1.428,0.643-1.428,1.429v7.426c0,0.786,0.643,1.429,1.428,1.429h7.427
		c0.786,0,1.428-0.643,1.428-1.429V7.73c0-0.071,0.027-0.143,0.081-0.196l0.571-0.571c0.062-0.062,0.134-0.09,0.205-0.09
		c0.036,0,0.071,0.009,0.107,0.027c0.107,0.044,0.179,0.143,0.179,0.259V9.997z M7.364,10.06c-0.286,0.286-0.732,0.286-1.018,0
		L2.508,6.222c-0.286-0.285-0.286-0.732,0-1.018L3.49,4.223c0.286-0.286,0.732-0.286,1.018,0l2.348,2.347l5.775-5.774
		c0.286-0.286,0.732-0.286,1.018,0l0.982,0.981c0.286,0.285,0.286,0.732,0,1.018L7.364,10.06z"/>
</g>
</svg>
