<?xml version="1.0" encoding="utf-8"?>
<!-- Generator: Adobe Illustrator 16.0.0, SVG Export Plug-In . SVG Version: 6.00 Build 0)  -->
<!DOCTYPE svg PUBLIC "-//W3C//DTD SVG 1.1//EN" "http://www.w3.org/Graphics/SVG/1.1/DTD/svg11.dtd">
<svg version="1.1" id="Layer_1" xmlns="http://www.w3.org/2000/svg" xmlns:xlink="http://www.w3.org/1999/xlink" x="0px" y="0px"
	 width="50px" height="58.535px" viewBox="0 0 50 58.535" enable-background="new 0 0 50 58.535" xml:space="preserve">
<g>
	<polyline fill="none" stroke="#318DDE" stroke-width="5" stroke-miterlimit="10" points="40,40 25,55 10,40 	"/>
	<line fill="none" stroke="#318DDE" stroke-width="5" stroke-miterlimit="10" x1="25" y1="27.5" x2="25" y2="52.5"/>
	<path fill="none" stroke="#318DDE" stroke-width="5" stroke-linejoin="round" stroke-miterlimit="10" d="M38.75,32.5
		c4.833,0,8.75-3.918,8.75-8.75c0-3.581-2.154-6.656-5.236-8.01c0.149-0.641,0.236-1.305,0.236-1.99C42.5,8.918,38.583,5,33.75,5
		c-2.109,0-4.044,0.747-5.555,1.99C25.473,4.222,21.689,2.5,17.5,2.5c-8.284,0-15,6.716-15,15s6.716,15,15,15"/>
</g>
</svg>
