<?xml version="1.0" encoding="utf-8"?>
<!-- Generator: Adobe Illustrator 16.0.0, SVG Export Plug-In . SVG Version: 6.00 Build 0)  -->
<!DOCTYPE svg PUBLIC "-//W3C//DTD SVG 1.1//EN" "http://www.w3.org/Graphics/SVG/1.1/DTD/svg11.dtd">
<svg version="1.1" id="Layer_1" xmlns="http://www.w3.org/2000/svg" xmlns:xlink="http://www.w3.org/1999/xlink" x="0px" y="0px"
	 width="15.923px" height="12.568px" viewBox="0 0 15.923 12.568" enable-background="new 0 0 15.923 12.568" xml:space="preserve">
<g>
	<path fill="#09262D" d="M12.568,9.997c0,1.42-1.151,2.571-2.571,2.571H2.571C1.151,12.568,0,11.417,0,9.997V2.571
		C0,1.151,1.151,0,2.571,0h7.427c0.357,0,0.714,0.071,1.044,0.224c0.08,0.035,0.143,0.115,0.161,0.205
		c0.018,0.098-0.009,0.188-0.081,0.259l-0.437,0.438c-0.081,0.08-0.188,0.106-0.286,0.071c-0.134-0.036-0.268-0.054-0.402-0.054
		H2.571c-0.786,0-1.428,0.643-1.428,1.429v7.426c0,0.786,0.643,1.429,1.428,1.429h7.427c0.786,0,1.428-0.643,1.428-1.429V8.873
		c0-0.071,0.027-0.143,0.081-0.196l0.571-0.571c0.089-0.09,0.205-0.107,0.312-0.062c0.107,0.044,0.179,0.143,0.179,0.259V9.997z
		 M14.282,4.284l-5.999,5.999H5.713V7.712l5.999-5.998L14.282,4.284z M8.962,8.391L7.605,7.034L6.57,8.069v0.5h0.857v0.857h0.5
		L8.962,8.391z M11.56,3.008L8.436,6.133c-0.081,0.08-0.089,0.214-0.009,0.294c0.08,0.081,0.214,0.071,0.294-0.009l3.124-3.124
		c0.081-0.08,0.089-0.214,0.009-0.295C11.774,2.919,11.64,2.928,11.56,3.008z M14.854,3.714l-2.571-2.571l0.821-0.821
		c0.33-0.33,0.884-0.33,1.214,0l1.357,1.356c0.33,0.331,0.33,0.884,0,1.215L14.854,3.714z"/>
</g>
</svg>
