<?xml version="1.0" encoding="utf-8"?>
<!-- Generator: Adobe Illustrator 16.0.0, SVG Export Plug-In . SVG Version: 6.00 Build 0)  -->
<!DOCTYPE svg PUBLIC "-//W3C//DTD SVG 1.1//EN" "http://www.w3.org/Graphics/SVG/1.1/DTD/svg11.dtd">
<svg version="1.1" id="Styles" xmlns="http://www.w3.org/2000/svg" xmlns:xlink="http://www.w3.org/1999/xlink" x="0px" y="0px"
	 width="1251.699px" height="258.619px" viewBox="0 0 1251.699 258.619" enable-background="new 0 0 1251.699 258.619"
	 xml:space="preserve">
<g>
	<g>
		<g>
			<g>
				<path fill="#3E8EDE" d="M1.086,117.842c0,0,0,0,0.021,0c60.994-1.294,109.668-52.56,110.768-116.771
					c0-0.28-0.1-0.578-0.328-0.738C111.354,0.134,111.081,0,110.775,0H94.542c-0.597,0-1.097,0.458-1.118,1.049
					C92.229,47.548,51.653,84.682,1.078,85.738C0.465,85.738,0,86.256,0,86.855v29.895c0,0.268,0.129,0.591,0.357,0.785
					C0.53,117.733,0.807,117.842,1.086,117.842z"/>
			</g>
			<g>
				<path fill="#3E8EDE" d="M341.553,85.738c-50.537-1.057-91.135-38.19-92.359-84.689C249.172,0.458,248.693,0,248.127,0H231.83
					c-0.271,0-0.557,0.134-0.785,0.332c-0.182,0.16-0.314,0.458-0.314,0.738c1.129,64.212,49.785,115.478,110.779,116.775
					c0.021,0,0.021,0,0.043,0c0.271,0,0.553-0.112,0.738-0.311c0.215-0.194,0.357-0.518,0.357-0.785V86.855
					C342.648,86.256,342.148,85.738,341.553,85.738z"/>
			</g>
			<g>
				<path fill="#3E8EDE" d="M1.086,186.496L1.086,186.496c47.621-0.591,92.46-20.158,126.207-55.01
					C161.039,96.531,179.947,50.261,180.49,1.07c0-0.28-0.098-0.578-0.292-0.738C179.969,0.134,179.684,0,179.404,0h-16.211
					c-0.609,0-1.079,0.458-1.079,1.049c-0.587,40.637-17.579,78.9-47.888,107.743c-30.271,28.837-70.453,45.045-113.141,45.523
					c-0.599,0-1.086,0.492-1.086,1.092v30.02c0,0.276,0.129,0.548,0.336,0.721C0.53,186.354,0.807,186.496,1.086,186.496z"/>
			</g>
			<g>
				<path fill="#3E8EDE" d="M172.117,148.927c-0.41-0.427-1.174-0.427-1.587,0C126.922,195.383,65.156,222.38,1.086,222.983
					c-0.599,0-1.086,0.518-1.086,1.101v29.933c0,0.268,0.129,0.565,0.336,0.769c0.194,0.198,0.449,0.198,0.75,0.319
					c63.246-0.596,123.402-25.387,169.479-69.963c0.51-0.457,1.022-0.457,1.532,0c46.024,44.576,106.231,69.367,169.435,69.963
					c0,0,0,0,0.021,0c0.271,0,0.553-0.121,0.738-0.319c0.215-0.203,0.357-0.501,0.357-0.769v-29.933
					c0-0.583-0.521-1.101-1.096-1.101C277.461,222.38,215.696,195.383,172.117,148.927z"/>
			</g>
			<g>
				<path fill="#3E8EDE" d="M212.107,90.346c-0.229-0.324-0.566-0.324-0.971-0.462c-0.396,0.061-0.703,0.319-0.889,0.651
					c-3.305,7.04-7.045,13.994-11.121,20.745c-0.229,0.389-0.212,0.867,0.064,1.187c34.17,46.353,86.053,73.365,142.34,74.029
					c0,0,0,0,0.021,0c0.271,0,0.553-0.142,0.738-0.349c0.215-0.173,0.357-0.444,0.357-0.721v-30.02c0-0.6-0.521-1.092-1.096-1.092
					C290.855,153.638,242.451,129.73,212.107,90.346z"/>
			</g>
		</g>
	</g>
	<g>
		<path fill="#08262C" d="M556.5,222.783h-45.588l-11.238,32.868h-29.049l53.434-149.484h21.414l53.433,149.484h-30.533
			L556.5,222.783z M518.334,199.463h31.803l-11.025-33.079l-4.453-23.324H533.6l-4.455,23.536L518.334,199.463z"/>
		<path fill="#08262C" d="M634.377,220.027c0,4.952,0.637,8.555,1.91,10.814c1.27,2.265,3.32,3.396,6.148,3.396
			c1.696,0,3.357-0.144,4.984-0.428c1.621-0.28,3.636-0.914,6.043-1.906l2.968,21.625c-2.265,1.135-5.725,2.26-10.39,3.396
			c-4.666,1.13-9.471,1.695-14.42,1.695c-8.058,0-14.205-1.876-18.445-5.617c-4.24-3.744-6.363-9.931-6.363-18.554v-127.22h27.564
			V220.027z"/>
		<path fill="#08262C" d="M725.465,255.651v-57.673c0-9.754-0.918-16.677-2.756-20.78c-1.838-4.097-5.654-6.15-11.449-6.15
			c-4.807,0-8.691,1.312-11.66,3.925c-2.969,2.614-5.232,5.971-6.786,10.069v70.609h-27.565V149.633h21.416l3.182,13.995h0.848
			c3.25-4.521,7.383-8.48,12.404-11.872c5.014-3.395,11.482-5.09,19.4-5.09c6.785,0,12.332,1.376,16.646,4.132
			c4.309,2.757,7.664,7.39,10.068,13.891c3.252-5.512,7.424-9.892,12.51-13.148c5.091-3.248,11.24-4.874,18.447-4.874
			c5.939,0,10.99,0.707,15.162,2.117c4.168,1.415,7.561,3.857,10.176,7.316c2.615,3.465,4.561,8.094,5.832,13.892
			c1.273,5.797,1.908,13.145,1.908,22.048v63.612h-27.563v-59.583c0-8.339-0.885-14.594-2.651-18.766
			c-1.769-4.167-5.689-6.255-11.768-6.255c-4.947,0-8.873,1.346-11.77,4.029c-2.898,2.687-5.055,6.362-6.465,11.026v69.548H725.465z
			"/>
		<path fill="#08262C" d="M828.324,119.738c0-4.098,1.516-7.596,4.557-10.495c3.041-2.898,7.242-4.349,12.617-4.349
			c5.371,0,9.717,1.45,13.041,4.349c3.318,2.899,4.982,6.397,4.982,10.495s-1.664,7.524-4.982,10.28
			c-3.324,2.757-7.67,4.137-13.041,4.137c-5.375,0-9.576-1.38-12.617-4.137C829.84,127.263,828.324,123.836,828.324,119.738z
			 M832.352,149.633h27.563v106.019h-27.563V149.633z"/>
		<path fill="#08262C" d="M1099.502,255.651v-60.218c0-8.623-1.237-14.844-3.713-18.661c-2.473-3.814-6.678-5.725-12.614-5.725
			c-5.231,0-9.646,1.522-13.253,4.559c-3.605,3.042-6.186,6.821-7.738,11.346v68.699h-27.565V149.633h21.841l3.18,13.995h0.85
			c3.248-4.521,7.559-8.48,12.934-11.872c5.371-3.395,12.297-5.09,20.779-5.09c5.229,0,9.891,0.707,13.994,2.117
			c4.098,1.415,7.557,3.749,10.388,6.998c2.829,3.257,4.948,7.67,6.362,13.252c1.412,5.587,2.118,12.48,2.118,20.677v65.941
			H1099.502z"/>
		<path fill="#08262C" d="M1135.545,149.633h14.633v-19.929l27.566-7.848v27.776h25.865v23.325h-25.865v40.711
			c0,7.35,0.74,12.613,2.225,15.796c1.484,3.181,4.27,4.772,8.373,4.772c2.826,0,5.268-0.285,7.316-0.851
			c2.049-0.564,4.344-1.41,6.889-2.545l4.88,21.203c-3.817,1.842-8.27,3.395-13.36,4.667s-10.25,1.907-15.479,1.907
			c-9.754,0-16.927-2.511-21.521-7.528c-4.594-5.018-6.889-13.253-6.889-24.7v-53.433h-14.633V149.633z"/>
		<path fill="#08262C" d="M1217.348,241.657c0-4.948,1.553-8.869,4.664-11.769c3.11-2.895,7.213-4.349,12.299-4.349
			c5.371,0,9.611,1.454,12.721,4.349c3.111,2.899,4.668,6.82,4.668,11.769c0,4.947-1.557,8.903-4.668,11.871
			c-3.109,2.972-7.35,4.456-12.721,4.456c-5.086,0-9.188-1.484-12.299-4.456C1218.9,250.561,1217.348,246.604,1217.348,241.657z"/>
		<g>
			<path fill="none" d="M976.546,209.005c-4.03,0.284-7.603,0.919-10.708,1.907c-3.11,0.991-5.586,2.402-7.42,4.24
				c-1.842,1.837-2.761,4.172-2.761,6.998c0,3.959,1.169,7.031,3.504,9.222c2.329,2.196,5.542,3.288,9.646,3.288
				c5.512,0,9.891-1.238,13.148-3.71c3.248-2.473,5.65-5.125,7.209-7.951v-13.782C984.775,208.79,980.574,208.721,976.546,209.005z"
				/>
			<path fill="#08262C" d="M1015.668,239.643c-0.428-5.725-0.604-11.626-0.531-17.704c0.069-6.078,0.318-12.265,0.742-18.555
				s0.633-12.544,0.633-18.765c0-5.651-0.598-10.741-1.798-15.268c-1.204-4.521-3.257-8.407-6.151-11.66
				c-2.898-3.252-6.82-5.759-11.768-7.527c-4.949-1.764-11.102-2.653-18.447-2.653c-8.373,0-16.404,0.73-24.084,2.178l3.99,21.749
				c5.162-0.82,10.094-1.235,14.793-1.235c7.346,0,12.086,1.729,14.205,5.194c2.123,3.464,2.684,9.153,1.699,17.069
				c-9.33-0.427-17.781-0.108-25.339,0.953c-7.566,1.062-14.067,2.968-19.507,5.725c-5.444,2.757-9.616,6.362-12.511,10.814
				c-2.898,4.452-4.349,9.932-4.349,16.433c0,4.663,0.777,8.873,2.334,12.617c1.553,3.745,3.744,6.997,6.574,9.754
				c2.826,2.757,6.217,4.875,10.177,6.358c3.956,1.484,8.407,2.226,13.354,2.226c7.916,0,14.383-1.587,19.404-4.771
				c5.018-3.179,8.938-6.958,11.77-11.341h1.061l4.451,14.628h22.476C1017.152,250.776,1016.09,245.367,1015.668,239.643z
				 M989.164,222.999c-1.559,2.826-3.961,5.479-7.209,7.951c-3.258,2.472-7.637,3.71-13.148,3.71c-4.104,0-7.316-1.092-9.646-3.288
				c-2.335-2.19-3.504-5.263-3.504-9.222c0-2.826,0.919-5.161,2.761-6.998c1.834-1.838,4.31-3.249,7.42-4.24
				c3.105-0.988,6.678-1.623,10.708-1.907c4.028-0.284,8.229-0.215,12.618,0.212V222.999z"/>
		</g>
		<path fill="#08262C" d="M939.13,175.504c-4.383-1.558-8.339-2.334-11.872-2.334c-4.949,0-9.084,1.308-12.402,3.921
			c-3.326,2.618-5.551,5.976-6.682,10.073v68.487h-27.561V149.633h21.414l3.178,13.995h0.851c2.397-5.229,5.651-9.258,9.753-12.088
			c4.098-2.825,8.904-4.24,14.416-4.24c3.678,0,7.849,0.781,12.512,2.333L939.13,175.504z"/>
	</g>
</g>
</svg>
